<svg xmlns="http://www.w3.org/2000/svg" xmlns:xlink="http://www.w3.org/1999/xlink" id="Layer_1" width="931" height="366.846" x="0" y="0" enable-background="new 0 0 931 366.846" version="1.1" viewBox="0 0 931 366.846" xml:space="preserve"><pattern id="New_Pattern_Swatch_2" width="36" height="36" x="3803" y="1197" overflow="visible" patternUnits="userSpaceOnUse" viewBox="0 -36 36 36"><g><polygon fill="none" points="0 -36 36 -36 36 0 0 0"/><path fill="#FFF" d="M20.833-18c0,1.564-1.268,2.833-2.833,2.833S15.167-16.436,15.167-18s1.268-2.834,2.833-2.834 S20.833-19.564,20.833-18z"/></g></pattern><g><defs><rect id="SVGID_175_" width="692.463" height="325.251" x="261.441" y="41.447"/></defs><clipPath id="SVGID_2_"><use overflow="visible" xlink:href="#SVGID_175_"/></clipPath><g clip-path="url(#SVGID_2_)"><polygon fill="#FFF3DA" stroke="#FFAD00" stroke-miterlimit="10" stroke-width="3.963" points="786.375 60.402 654.729 295.734 556.303 287.717 552.754 480.922 421.664 413.725 372.396 661.409 389.886 664.887 434.544 440.365 570.058 509.828 573.784 307.031 664.698 314.438 801.937 69.107"/></g><g clip-path="url(#SVGID_2_)"><polygon fill="#DAEDFF" stroke="#58AEFF" stroke-miterlimit="10" stroke-width="3.963" points="908.158 88.341 678.998 251.152 600.037 205.487 509.733 387.109 417.081 266.259 280.484 449.961 266.174 439.32 416.865 236.668 506.492 353.574 592.523 180.544 678.01 229.981 897.831 73.805"/></g></g><g><defs><rect id="SVGID_177_" width="552" height="417.866" x="-77.559" y="-51.168"/></defs><clipPath id="SVGID_4_"><use overflow="visible" xlink:href="#SVGID_177_"/></clipPath><rect width="42" height="361.998" x="26.082" y="25.699" fill="#FDE7DF" stroke="#F15A24" stroke-miterlimit="10" stroke-width="8" clip-path="url(#SVGID_4_)"/><rect width="62" height="361.998" x="109.377" y="104.699" fill="#DAEDFF" stroke="#58AEFF" stroke-miterlimit="10" stroke-width="8" clip-path="url(#SVGID_4_)"/><rect width="73.359" height="361.998" x="224.082" y="63.699" fill="#FFF3DA" stroke="#FFAD00" stroke-miterlimit="10" stroke-width="8" clip-path="url(#SVGID_4_)"/></g><pattern id="SVGID_6_" patternTransform="matrix(0.5144 0 0 0.5144 -5658.7534 -4212.7246)" xlink:href="#New_Pattern_Swatch_2"/><rect width="31.32" height="335.229" x="31.542" y="31.617" fill="url(#SVGID_6_)" opacity=".8"/><pattern id="SVGID_7_" patternTransform="matrix(0.5144 0 0 0.5144 -5648.4961 -4230.5322)" xlink:href="#New_Pattern_Swatch_2"/><rect width="50.986" height="257.116" x="115.876" y="109.583" fill="url(#SVGID_7_)" opacity=".8"/><pattern id="SVGID_9_" patternTransform="matrix(0.5144 0 0 0.5144 -5648.0283 -4212.7246)" xlink:href="#New_Pattern_Swatch_2"/><rect width="66.225" height="297.229" x="227.459" y="69.616" fill="url(#SVGID_9_)"/></svg>